# xmcd
#
# Track frame offsets:
#	150
#	14520
#	28347
#	41306
#	56911
#	71425
#	85879
#	100267
#	113210
#	128102
#	142845
#	156943
#
# Disc length: 2275 seconds
#
# Revision: 0
# Processed by: cddbd v1.5.2PL0 Copyright (c) Steve Scherf et al.
# Submitted via: EasyCDDAExtractor 16.0.6.1
#
DISCID=a008e10c
DTITLE=Ξανθόπουλος Νίκος - Όσα θυμάμαι και όσα αγάπησα-Ν. Ξανθόπουλος
DYEAR=2005
DGENRE=Λαϊκή
TTITLE0=Απόψε πού 'χω συννεφιά [Α. Καλδάρας-Ν. Μουρκάκος]
TTITLE1=Πετραδάκι, πετραδάκι [Α. Καλδάρας-Ε. Παπαγιαννοπούλου]
TTITLE2=Μην κάνεις όνειρα τρελλά [Α. Καλδάρας]
TTITLE3=Αφού αμαρτήσανε τα δυό σου χείλη [Α.Καλδάρας-Ε.Παπαγιαννοπούλου]
TTITLE4=Τώρα κλαίς, γιατί κλαίς [Α. Καλδάρας]
TTITLE5=Χίλιες ξενητιές δεν κάνουν μιά πατρίδα [Γ. Μανισαλής-Κ. Ψυχογιός]
TTITLE6=Πλάϊ μου στάσου στη ζωή [Α. Καλδάρας-Ε. Παπαγιαννοπούλου]
TTITLE7=Δε σού χρωστάω τίποτα [Σ. Ξαρχάκος-Λ. Παπαδόπουλος]
TTITLE8=Βήμα, βήμα [Χρ. Νικολόπουλος-Χ. Μπαλαμπανίδης]
TTITLE9=Κάποια, κάπου, κάποτε [Χρ. Νικολόπουλος-Λ. Χαψιάδης]
TTITLE10=Αν πεθάνει μιά αγάπη [Χρ. Νικολόπουλος-Μ. Ρασούλης]
TTITLE11=Αγριολούλουδο [Χρ. Νικολόπουλος-Σ. Καζαντζίδης/Πυθαγόρας]
EXTD=
EXTT0=
EXTT1=
EXTT2=
EXTT3=
EXTT4=
EXTT5=
EXTT6=
EXTT7=
EXTT8=
EXTT9=
EXTT10=
EXTT11=
PLAYORDER=
